# xmcd
# 
# Track frame offsets:
#     187
#     13045
#     25837
#     39755
#     53240
#     64730
#     75960
#     89847
#     111687
#     125292
#     138292
#     151842
#     167882
#     180052
#     195745
#     209065
#     226615
#     241375
#     258825
#     277130
#     292460
# 
# Disc length: 4074
# 
# Revision: 1
# Processed by: cddbd v1.5.2PL0 Copyright (c) Steve Scherf et al.
# Submitted via: fre:ac v1.0.31
# 
DISCID=270fe815
DTITLE=タニア・タッカー - TANIYA TUCKER (BEST ONE)
DYEAR=1997
DGENRE=Country
TTITLE0=SAN ANTONIO STROLL
TTITLE1=DON'T BELIEVEmy HEART CAN STAND ANOTHER YOU
TTITLE2=YOU'VE GOT ME TO HOLD ON YOU
TTITLE3=HERE'S SOME LOVE
TTITLE4=IT'S A COWBOY LOVIN' NIGHT
TTITLE5=PECOS PROMENADE
TTITLE6=LIZZIE AND THE RAINMAN
TTITLE7=TEXAS(WHEN I DIE)
TTITLE8=SHOULD I DO IT
TTITLE9=CAN I SEE YOU TONIGHT
TTITLE10=DREAM LOVER
TTITLE11=DANCING THE NIGHT AWAY
TTITLE12=RIDIN' RAINBOWS
TTITLE13=PRIDE OF FRANKLIN COUNTY
TTITLE14=WAIT 'TIL DADDY FINDS OUT
TTITLE15=LET'S KEEP IT THAT WAY
TTITLE16=SHORT CUT
TTITLE17=LOVE KNOWS WE TRIED
TTITLE18=I'M THE SINGER YOU'RE THE SONG
TTITLE19=RODEO GIRL
TTITLE20=SAVE ME
EXTD=
EXTT0=SAN ANTONIO STROLL
EXTT1=
EXTT2=
EXTT3=
EXTT4=
EXTT5=
EXTT6=
EXTT7=
EXTT8=
EXTT9=
EXTT10=
EXTT11=
EXTT12=
EXTT13=
EXTT14=
EXTT15=
EXTT16=
EXTT17=
EXTT18=
EXTT19=
EXTT20=
PLAYORDER=
